<?xml version="1.0" encoding="utf-8"?>
<!-- Generator: Adobe Illustrator 24.1.0, SVG Export Plug-In . SVG Version: 6.00 Build 0)  -->
<svg version="1.1"
	 id="Layer_1" xmlns:cc="http://creativecommons.org/ns#" xmlns:dc="http://purl.org/dc/elements/1.1/" xmlns:inkscape="http://www.inkscape.org/namespaces/inkscape" xmlns:rdf="http://www.w3.org/1999/02/22-rdf-syntax-ns#" xmlns:sodipodi="http://sodipodi.sourceforge.net/DTD/sodipodi-0.dtd" xmlns:svg="http://www.w3.org/2000/svg"
	 xmlns="http://www.w3.org/2000/svg" xmlns:xlink="http://www.w3.org/1999/xlink" x="0px" y="0px" viewBox="0 0 100 125"
	 style="enable-background:new 0 0 100 125;" xml:space="preserve">
<style type="text/css">
	.st0{fill:#FFFFFF;stroke:#231F20;stroke-width:2;stroke-miterlimit:10;}
</style>
<ellipse class="st0" cx="47" cy="56.9" rx="40.9" ry="41.9"/>
<g transform="translate(0,-952.36218)">
	<path d="M29.2,980.3c-4.5,0-8.1,3.3-8.1,7.3s3.7,7.3,8.1,7.3s8.1-3.3,8.1-7.3S33.7,980.3,29.2,980.3z M29.2,983.7
		c2.4,0,4.4,1.7,4.4,3.9c0,2.2-1.9,3.9-4.4,3.9s-4.4-1.7-4.4-3.9C24.8,985.4,26.8,983.7,29.2,983.7z M61.7,994.9
		c-3.5,0-6.1,1.2-8.1,2.7c-0.1-0.8-0.9-1.5-1.9-1.5h-10c-1,0-1.9,0.8-1.9,1.7v30.3c0,0.9,0.9,1.7,1.9,1.7h10.6c1,0,1.9-0.8,1.9-1.7
		v-16.8c0-1.3,0.5-2.5,1.1-3.3c0.6-0.8,1.4-1.1,2-1.1h1.3c0.7,0,1.4,0.3,2,1.1c0.6,0.8,1.1,2,1.1,3.3v16.8c0,0.9,0.9,1.7,1.9,1.7
		h10.6c1,0,1.9-0.8,1.9-1.7v-19.6c0-3.8-0.8-7.2-3.2-9.7C70.6,996.1,66.8,994.9,61.7,994.9z M24,996c-0.9,0.1-1.7,0.9-1.7,1.7v30.3
		c0,0.9,0.9,1.7,1.9,1.7h10.6c1,0,1.9-0.8,1.9-1.7v-30.3c0-0.9-0.9-1.7-1.9-1.7C31.2,996,27.6,996,24,996z M61.7,998.2
		c4.4,0,6.8,1,8.4,2.6c1.5,1.6,2.3,4.1,2.3,7.5v17.9h-6.9v-15.1c0-2-0.7-3.9-1.8-5.3c-1.2-1.5-3-2.5-5.1-2.5h-1.3
		c-2.1,0-3.9,1.1-5.1,2.5c-1.2,1.5-1.8,3.3-1.8,5.3v6.2c-0.1,0-0.1,0-0.2,0c-1,0-1.8,0.9-1.8,1.8c0.1,0.9,1,1.6,2,1.6v1.1
		c-0.1,0-0.1,0-0.2,0c-1,0-1.8,0.9-1.8,1.8c0.1,0.9,1,1.6,2,1.6v1.1h-6.9v-26.9h6.3v2.2c0,0.7,0.5,1.4,1.3,1.6s1.6,0,2.1-0.5
		C55.3,1000.3,57.3,998.2,61.7,998.2z M26.1,999.3h6.9v17.9c-0.1,0-0.1,0-0.2,0c-1,0-1.8,0.9-1.8,1.8c0.1,0.9,1,1.6,2,1.6v1.1
		c-0.1,0-0.1,0-0.2,0c-1,0-1.8,0.9-1.8,1.8c0.1,0.9,1,1.6,2,1.6v1.1h-6.9V999.3z"/>
</g>
</svg>
